<svg xmlns="http://www.w3.org/2000/svg" xmlns:xlink="http://www.w3.org/1999/xlink" width="500" zoomAndPan="magnify" viewBox="0 0 375 374.999991" height="500" preserveAspectRatio="xMidYMid meet" version="1.0"><defs><g/></defs><g fill="#000000" fill-opacity="1"><g transform="translate(2.580797, 365.556734)"><g><path d="M 234.921875 -164.953125 L 268.921875 -164.953125 C 285.910156 -164.953125 301.234375 -161.117188 314.890625 -153.453125 C 328.554688 -145.785156 339.304688 -135.367188 347.140625 -122.203125 C 354.972656 -109.046875 358.890625 -94.46875 358.890625 -78.46875 C 358.890625 -62.8125 355.304688 -48.398438 348.140625 -35.234375 C 340.972656 -22.078125 331.140625 -11.582031 318.640625 -3.75 C 306.148438 4.082031 291.90625 8 275.90625 8 C 256.582031 8 240.085938 3.332031 226.421875 -6 C 212.765625 -15.332031 202.4375 -27.660156 195.4375 -42.984375 C 188.4375 -58.316406 184.9375 -75.144531 184.9375 -93.46875 L 184.9375 -153.453125 C 184.9375 -158.117188 183.269531 -161.203125 179.9375 -162.703125 C 176.613281 -164.203125 173.285156 -164.203125 169.953125 -162.703125 C 166.617188 -161.203125 164.953125 -158.117188 164.953125 -153.453125 L 164.953125 -35.484375 C 164.953125 -24.160156 162.535156 -15.414062 157.703125 -9.25 C 152.867188 -3.082031 144.617188 0 132.953125 0 L 41.984375 0 C 30.660156 0 22.5 -3.082031 17.5 -9.25 C 12.5 -15.414062 10 -24.160156 10 -35.484375 L 10 -314.40625 C 10 -326.0625 12.5 -334.890625 17.5 -340.890625 C 22.5 -346.890625 30.660156 -349.890625 41.984375 -349.890625 L 132.453125 -349.890625 C 154.117188 -349.890625 164.953125 -337.0625 164.953125 -311.40625 L 164.953125 -197.4375 C 164.953125 -192.4375 166.617188 -189.101562 169.953125 -187.4375 C 173.285156 -185.769531 176.613281 -185.769531 179.9375 -187.4375 C 183.269531 -189.101562 184.9375 -192.4375 184.9375 -197.4375 L 184.9375 -256.421875 C 184.9375 -277.410156 188.9375 -295.484375 196.9375 -310.640625 C 204.9375 -325.804688 215.765625 -337.472656 229.421875 -345.640625 C 243.085938 -353.804688 258.582031 -357.890625 275.90625 -357.890625 C 292.570312 -357.890625 307.066406 -353.972656 319.390625 -346.140625 C 331.722656 -338.304688 341.390625 -327.890625 348.390625 -314.890625 C 355.390625 -301.898438 358.890625 -287.410156 358.890625 -271.421875 C 358.890625 -255.421875 354.972656 -240.921875 347.140625 -227.921875 C 339.304688 -214.929688 328.554688 -204.519531 314.890625 -196.6875 C 301.234375 -188.851562 285.910156 -184.9375 268.921875 -184.9375 L 236.421875 -184.9375 C 231.753906 -184.9375 228.585938 -183.269531 226.921875 -179.9375 C 225.265625 -176.613281 225.097656 -173.285156 226.421875 -169.953125 C 227.753906 -166.617188 230.585938 -164.953125 234.921875 -164.953125 Z M 234.921875 -164.953125 "/></g></g></g></svg>